<svg xmlns="http://www.w3.org/2000/svg" xmlns:xlink="http://www.w3.org/1999/xlink" version="1.1" x="0px" y="0px" viewBox="0 0 100 125" enable-background="new 0 0 100 100" xml:space="preserve"><path d="M57.324,75.972c-1.314,0-2.582-0.118-3.766-0.351c-0.502-0.098-0.854-0.59-0.819-1.141c0.036-0.551,0.448-0.985,0.958-1.007  l6.798-0.294c1.943-0.273,3.408-1.07,4.28-2.309c0.729-1.036,1.013-2.379,0.82-3.883c-0.07-0.545-0.354-1.922-1.483-2.931  c-0.208-0.186-0.338-0.454-0.36-0.745c-0.023-0.29,0.063-0.579,0.239-0.799c0.854-1.071,1.241-2.636,1.15-4.651  c-0.138-3.057-2.282-5.111-5.337-5.111l-6.605,0.09c-0.344-0.016-0.684-0.194-0.867-0.52c-0.184-0.327-0.194-0.736-0.027-1.074  c1.434-2.901,1.439-6.299,1.315-8.066c-0.039-0.549,0.31-1.042,0.809-1.146c0.863-0.18,2.126-0.568,3.234-1.398  c0.249-0.186,0.56-0.239,0.853-0.148c0.29,0.093,0.525,0.324,0.641,0.627c1.063,2.802,4.174,6.385,9.986,7.006  c1.12,0.12,2.019-0.29,1.844-0.339c-9.692-2.682-11.646-10.001-11.865-10.058c-0.245-0.063-0.451,0.061-0.557,0.269  c-1.515,3.033-5.449,3.138-5.615,3.141c-0.158,0.001-0.298,0.074-0.393,0.199c-0.095,0.126-0.132,0.289-0.104,0.449  c0.018,0.085,0.994,10.602-5.528,12.934c-0.275,0.097-0.573,0.062-0.82-0.095c-0.248-0.158-3.285-16.756-3.547-18.484  c-0.051-0.343-0.029-0.657-0.011-0.814c0.036-0.323,0.206-0.611,0.46-0.784c2.024-1.377,16.664-10.502,22.017-10.502  c0.601,0,1.092,0.104,1.503,0.316c0.458,0.236,15.637,11.245,15.73,11.31c1.024,0.634,8.368,1.441,8.653,1.548  c1.668,0.628,1.837,1.82,1.9,2.269c0.049,0.131,0.054,0.234,0.054,0.376v23.79c0,0.039-0.002,0.077-0.006,0.115  c-0.161,1.631-1.281,2.545-3.24,2.643C86.658,66.554,67.455,76.796,57.324,75.972z M42.952,72.851c-0.001,0-0.002,0-0.003,0  c-2.746-0.01-3.971-1.385-3.971-4.459c0-1.364,0.646-3.666,4.967-3.751c0,0,16.111-0.555,17.288-0.636  c0.067-0.004,0.133-0.002,0.199,0.008c1.937,0.287,3.096,1.458,3.182,3.214c0.195,4.035-1.858,4.605-4.164,4.867L42.992,72.85  C42.978,72.85,42.964,72.851,42.952,72.851z M40.71,63.631c-0.042,0-0.084-0.003-0.126-0.008c-2.923-0.401-4.405-2.115-4.405-5.094  c0-2.769,3.148-4.099,5.383-4.16l2.243-0.107c0.47-0.027,0.934,0.35,1.026,0.88l0.091,0.517c0.061,0.343,0.267,0.528,0.505,0.528  c1.859-0.307,3.382-0.977,4.605-1.999c0.171-0.143,0.381-0.222,0.597-0.225c1.56-0.023,5.972-0.086,9.068-0.126h0.001  c2.702,0,4.33,1.525,4.445,4.079c0.132,2.941-0.798,4.619-2.762,4.988c-0.045,0.008-0.091,0.014-0.137,0.015  c0,0-18.202,0.644-20.508,0.713C40.728,63.631,40.718,63.631,40.71,63.631z M7.281,58.727c-0.642-2.206,0.943-4.796,2.927-5.533  c1.169-0.435,31.506-10.394,31.886-10.292c0.38,0.102,0.671,0.434,0.743,0.852c0.487,2.801,1.019,5.839,1.427,8.163  c0.055,0.309-0.019,0.628-0.198,0.875c-0.18,0.246-0.45,0.396-0.74,0.41c0,0-3.521,0.267-4.338,0.555  c-8.755,2.655-25.541,7.714-26.69,7.948C12.023,61.76,8.261,62.096,7.281,58.727z M41.177,41.125  c-0.223,0-28.011-8.473-28.011-8.473c-4.69-1.392-6.071-2.881-5.473-5.9c0.35-1.761,1.63-2.771,3.513-2.771  c0.62,0,32.024,6.997,32.024,6.997c0.406,0.09,0.719,0.443,0.786,0.886c0.066,0.443-0.126,0.885-0.484,1.111  c-1.338,0.844-1.598,1.104-1.623,1.131c-0.396,0.581-0.438,1.562-0.34,2.208c0.077,0.511,0.282,1.733,0.555,3.321  c0.047,0.125,0.072,0.262,0.072,0.406c0,0.601-0.462,1.077-1.009,1.083C41.184,41.125,41.181,41.125,41.177,41.125z"/><text x="0" y="115" fill="#000000" font-size="5px" font-weight="bold" font-family="'Helvetica Neue', Helvetica, Arial-Unicode, Arial, Sans-serif">Created by H Alberto Gongora</text><text x="0" y="120" fill="#000000" font-size="5px" font-weight="bold" font-family="'Helvetica Neue', Helvetica, Arial-Unicode, Arial, Sans-serif">from the Noun Project</text></svg>