<svg xmlns="http://www.w3.org/2000/svg" xmlns:xlink="http://www.w3.org/1999/xlink" version="1.1" x="0px" y="0px" viewBox="0 0 100 125" enable-background="new 0 0 100 100" xml:space="preserve"><path d="M48.205,85.801H18.389c-2.961,0-4.801-1.679-4.801-4.382c0-3.363,2.618-4.556,4.859-4.556H48.16  c0.296,0,0.546-0.363,0.546-0.793c0-0.43-0.25-0.793-0.546-0.793H14.517c-2.475,0-4.98-1.766-4.98-5.141  c0-3.606,2.788-5.551,5.412-5.551h28.139c0.296,0,0.546-0.363,0.546-0.793c0-0.43-0.25-0.793-0.546-0.793H12  c-2.856,0-5.093-2.184-5.093-4.973c0-2.592,1.465-4.595,3.484-4.763c0.828-0.069,32.697-0.079,32.697-0.079  c0.296,0,0.546-0.363,0.546-0.793c0-0.43-0.25-0.793-0.546-0.793H16.619c-2.425,0-5.036-1.536-5.036-4.907  c0-2.147,0.641-5.005,6.183-5.035l36.348-0.166c0.001,0,0.852,0.341,0.975,0.819c4.035,15.706,18.926,19.414,18.941,18.993  c0.016-0.436-0.245-0.718-0.526-0.833c-15.817-6.497-16.892-25.335-17.004-25.387c-2.19-1.002-3.668-4.599-8.583-6.469  c-4.958-1.887-6.536-5.613-6.698-6.076c-0.806-2.307-0.228-5.678,0.689-7.729c0.116-0.259,0.323-0.457,0.575-0.551  c0.253-0.094,0.528-0.075,0.768,0.052l15.332,6.667C67.643,27.893,79,35.041,81.865,39.689c0.844,1.368,5.231,1.478,7.21,1.648  c1.422,0.122,1.847,0.166,2.176,0.349c1.393,0.778,1.891,1.569,1.837,2.921l0.001,28.515c-0.01,2.409-1.8,2.992-3.301,3.071  C87.995,76.286,62.665,85.801,48.205,85.801z"/><text x="0" y="115" fill="#000000" font-size="5px" font-weight="bold" font-family="'Helvetica Neue', Helvetica, Arial-Unicode, Arial, Sans-serif">Created by H Alberto Gongora</text><text x="0" y="120" fill="#000000" font-size="5px" font-weight="bold" font-family="'Helvetica Neue', Helvetica, Arial-Unicode, Arial, Sans-serif">from the Noun Project</text></svg>