<svg xmlns="http://www.w3.org/2000/svg" xmlns:xlink="http://www.w3.org/1999/xlink" version="1.1" x="0px" y="0px" viewBox="0 0 100 125" enable-background="new 0 0 100 100" xml:space="preserve"><path d="M35.721,81.28c-0.492-0.066-0.872-0.491-0.893-1.022c-0.021-0.531,0.325-0.998,0.812-1.097l11.238-2.295  c3.803-0.834,6.137-3.93,5.663-7.527c-0.333-2.527-2.527-4.431-5.461-4.739c-0.338-0.035-0.636-0.252-0.791-0.575  c-0.155-0.324-0.147-0.709,0.021-1.025c0.75-1.403,0.974-3.12,0.646-4.965c-0.27-1.518-0.897-2.791-1.867-3.782  c-0.398-0.407-0.416-1.081-0.039-1.511c1.009-1.151,1.396-2.705,1.259-5.036c-0.066-1.115-0.515-2.157-1.332-3.096  c-0.214-0.246-0.308-0.586-0.253-0.918c0.055-0.332,0.251-0.617,0.531-0.77c0.97-0.528,1.727-1.287,2.251-2.257  c0.19-0.352,0.538-0.556,0.932-0.532c0.379,0.027,0.712,0.283,0.857,0.659c2.05,5.297,5.871,6.916,12.604,7.545  c2.022,0.189,1.964-0.551,1.788-0.587C49.563,44.819,49.08,33.668,48.951,33.554c-0.128-0.113-0.303-0.15-0.463-0.099  c-2.735,0.889-6.666,1.348-6.704,1.352c-0.065,0.007-0.13,0.031-0.189,0.068c-0.01,0.141-0.02,0.323-0.033,0.54  c-0.223,3.58-0.9,14.477-7.957,16.954c-0.271,0.096-0.566,0.063-0.815-0.093c-0.246-0.154-0.42-0.414-0.477-0.714  c-0.776-4.13-4.266-24.568-3.768-25.268c0.208-0.293,27.789-7.794,29.153-7.794c0.176,0,0.319,0.013,0.449,0.051  c2.811,0.823,20.499,14.508,20.603,14.571c1.134,0.695,10.956,1.813,11.465,2.183c1.482,1.078,1.999,2.386,2.152,2.899  c0.031,0.106,0.048,0.217,0.048,0.328l0.001,30.644c-0.056,1.495-2.838,3.654-4.257,3.654C85.448,72.83,54,83.75,35.721,81.28z   M25.983,79.908c-2.175,0-4.896-1.015-5.405-3.877c-0.586-3.283,2.065-5.392,4.953-6.025l19.222-4.216  c0.499-0.11,1.011-0.166,1.52-0.166c2.765,0,4.984,1.626,5.278,3.865c0.396,3.008-1.604,5.609-4.866,6.323l-19.316,3.946  C26.97,79.854,26.48,79.908,25.983,79.908z M16.99,70.613c-2.858,0-5.312-1.627-5.803-5.284c-0.438-3.266,1.479-5.62,5.118-6.764  c0,0,23.561-5.107,24.119-5.107c2.989,0,5.013,1.741,5.55,4.777c0.662,3.733-1.207,6.458-5,7.289l-22.405,4.914  C18.042,70.554,17.51,70.613,16.99,70.613z M13.752,56.293c-2.408,0-6.038-1.338-6.166-5.024c-0.135-3.829,1.798-5.956,5.742-6.321  l15.677-1.015c0.496-0.042,0.946,0.337,1.042,0.866c0.742,4.105,1.339,7.263,1.521,8.228c0.11,0.58-0.238,1.146-0.779,1.264  l-4.809,1.055c-0.042,0.009-11.719,0.924-11.719,0.924C14.112,56.285,13.937,56.293,13.752,56.293z M43.093,52.823  c-0.104,0-0.207-0.017-0.308-0.052c-0.737-0.256-1.531-0.385-2.36-0.385c-0.321,0-0.675,0.025-1.083,0.077  c-0.42,0.051-0.838-0.19-1.021-0.606c-0.185-0.416-0.1-0.912,0.209-1.231c0.448-0.464,0.816-0.904,1.126-1.346  c0.848-1.21,1.52-2.672,1.999-4.345c0.094-0.328,0.328-0.587,0.63-0.699c0.303-0.112,0.636-0.062,0.897,0.134  c1.337,0.998,2.054,2.144,2.129,3.404c0.146,2.485-0.313,3.845-1.641,4.853C43.499,52.756,43.297,52.823,43.093,52.823z   M28.49,42.752c-0.004,0.001-0.012,0.001-0.02,0H17.174c-3.027,0-6.262-1.493-6.262-5.683c0-3.731,3.15-5.683,6.262-5.683h9.722  c0.485,0,0.901,0.374,0.985,0.887c0.495,3.028,1.029,6.134,1.536,9.001c0.048,0.125,0.073,0.262,0.073,0.405  C29.49,42.272,29.043,42.752,28.49,42.752z M43.35,42.468c-0.239,0-0.474-0.092-0.658-0.265c-0.247-0.232-0.373-0.58-0.335-0.93  c0.197-1.834,0.173-3.444,0.118-4.472c-0.03-0.557,0.343-1.045,0.857-1.123c0.652-0.099,1.658-0.265,2.742-0.494  c0.525-0.113,1.039,0.241,1.165,0.798c0.077,0.338,0.116,0.648,0.118,0.92c0.021,2.858-1.35,4.875-3.761,5.533  C43.515,42.457,43.432,42.468,43.35,42.468z"/><text x="0" y="115" fill="#000000" font-size="5px" font-weight="bold" font-family="'Helvetica Neue', Helvetica, Arial-Unicode, Arial, Sans-serif">Created by H Alberto Gongora</text><text x="0" y="120" fill="#000000" font-size="5px" font-weight="bold" font-family="'Helvetica Neue', Helvetica, Arial-Unicode, Arial, Sans-serif">from the Noun Project</text></svg>