<svg xmlns="http://www.w3.org/2000/svg" xmlns:xlink="http://www.w3.org/1999/xlink" version="1.1" x="0px" y="0px" viewBox="0 0 100 125" style="enable-background:new 0 0 100 100;" xml:space="preserve"><path d="M50.9,25.6L36.4,26c-0.8,0-1.5,0.7-1.5,1.5c0,1.8,0.3,3.3,0.7,4.5h-21c-3.5,0-6.4,2.9-6.4,6.4c0,1.4,0.4,2.7,1.2,3.7  C6.9,43.1,5,45.5,5,48.3c0,3.5,2.9,6.4,6.4,6.4h0.4c-0.6,1-1,2.2-1,3.4c0,3.5,2.9,6.4,6.4,6.4h7.7c-0.6,1-1,2.2-1,3.4  c0,3.5,2.9,6.4,6.4,6.4l34.2,0c12.9,0,18.5-2.2,22.5-3.8c2.3-0.9,4-1.6,6.4-1.6c0.8,0,1.5-0.7,1.5-1.5S94.3,66,93.5,66  c-3,0-5.1,0.8-7.5,1.8c-3.8,1.5-9.1,3.6-21.4,3.6l-34.2,0c-1.9,0-3.4-1.5-3.4-3.4s1.5-3.4,3.4-3.4h22.2c0.8,0,1.5-0.7,1.5-1.5  s-0.7-1.5-1.5-1.5H17.2c-1.9,0-3.4-1.5-3.4-3.4s1.5-3.4,3.4-3.4h35.3c0.8,0,1.5-0.7,1.5-1.5s-0.7-1.5-1.5-1.5H11.4  c-1.9,0-3.4-1.5-3.4-3.4s1.5-3.4,3.4-3.4h40.9c0.8,0,1.5-0.7,1.5-1.5s-0.7-1.5-1.5-1.5H14.7c-1.9,0-3.4-1.5-3.4-3.4s1.5-3.4,3.4-3.4  h23c2.8,2.6,7.4,3.1,12.3,3.1h12.6c1.3,7.1,12,10.1,12.4,10.2c0.8,0.2,1.6-0.2,1.8-1c0.2-0.8-0.2-1.6-1-1.8  c-2.9-0.8-10.4-3.9-10.4-8.8c0-0.8-0.7-1.5-1.5-1.5H49.9C40.9,35.2,38.4,33,38,29l12.9-0.4l13.7,0c13,0,17.9,3.8,21.8,6.8  c2.1,1.6,4,3.1,6.7,3.8c0.8,0.2,1.6-0.3,1.8-1.1c0-0.1,0-0.2,0-0.4c0-0.7-0.5-1.3-1.1-1.5c-2.1-0.5-3.6-1.7-5.6-3.2  c-4.3-3.3-9.7-7.4-23.7-7.4L50.9,25.6z"/><text x="0" y="115" fill="#000000" font-size="5px" font-weight="bold" font-family="'Helvetica Neue', Helvetica, Arial-Unicode, Arial, Sans-serif">Created by Till Teenck</text><text x="0" y="120" fill="#000000" font-size="5px" font-weight="bold" font-family="'Helvetica Neue', Helvetica, Arial-Unicode, Arial, Sans-serif">from the Noun Project</text></svg>